<svg xmlns="http://www.w3.org/2000/svg" viewBox="0 0 560 300" role="img" aria-label="MarcVista logo">
  <title>MarcVista</title>
  <svg x="175" y="30" width="210" height="88" viewBox="0 0 105 44" preserveAspectRatio="xMidYMid meet">
<path d="M0.505859 0.244629C13.4474 0.244629 26.389 0.244629 39.7227 0.244629C43.3773 8.39278 43.3773 8.39278 44.3629 10.7958C44.8205 11.8619 45.3751 12.8812 45.9133 13.9108C46.4968 15.0486 47.0258 16.207 47.5503 17.371C47.6657 17.6254 47.781 17.8798 47.8999 18.1419C48.6229 19.7409 49.3361 21.3438 50.0458 22.9484C50.1285 23.1352 50.2111 23.322 50.2963 23.5145C50.7037 24.4355 51.1103 25.3569 51.5154 26.279C52.3166 28.098 53.1421 29.9019 54.0142 31.6903C54.7191 33.1356 55.3927 34.5931 56.0578 36.0557C56.1698 36.2999 56.2819 36.5442 56.3973 36.7958C57.2988 38.7746 58.1191 40.7672 58.9516 42.778C52.4391 42.778 45.9266 42.778 39.2167 42.778C38.7992 41.7293 38.3818 40.6806 37.9516 39.6002C37.7117 39.0723 37.466 38.5467 37.2084 38.0266C36.7045 36.9953 36.2223 35.9588 35.7615 34.909C34.8718 32.8914 33.9568 30.8847 33.0424 28.8775C31.5404 25.5799 30.0416 22.2809 28.5586 18.9752C28.4916 18.8259 28.4246 18.6767 28.3556 18.5229C27.4632 16.5327 26.588 14.536 25.7239 12.5342C25.1059 11.1116 24.436 9.71826 23.7474 8.32657C23.3718 7.55158 23.0309 6.76589 22.6958 5.9738C22.5453 5.62137 22.5453 5.62137 22.3918 5.26183C22.1941 4.79594 21.9995 4.32879 21.8083 3.86033C21.718 3.64838 21.6276 3.43644 21.5345 3.21807C21.4163 2.9324 21.4163 2.9324 21.2957 2.64097C20.9932 2.08048 20.9932 2.08048 19.9878 1.95574C19.9878 15.4271 19.9878 28.8984 19.9878 42.778C13.5588 42.778 7.12971 42.778 0.505859 42.778C0.505859 28.742 0.505859 14.706 0.505859 0.244629Z" fill="#7C3AED"/>
<path d="M46.3013 0.244629C52.7303 0.244629 59.1593 0.244629 65.7832 0.244629C66.2842 1.45463 66.7851 2.66463 67.3013 3.9113C67.7628 4.81251 67.7628 4.81251 68.235 5.70846C68.8849 6.97808 69.4382 8.29118 70.0088 9.59546C71.5738 13.1705 73.1834 16.7257 74.8126 20.2738C76.2616 23.4308 77.6986 26.5912 79.0964 29.7697C79.7959 31.3566 80.5088 32.9371 81.2327 34.5136C81.3207 34.7054 81.4087 34.8971 81.4993 35.0946C81.9333 36.0399 82.3685 36.9847 82.8054 37.9288C82.9625 38.2701 83.1196 38.6114 83.2766 38.9528C83.35 39.1103 83.4233 39.2678 83.4989 39.4301C84.0001 40.5226 84.0001 40.5226 84.0001 41.0669C84.334 41.0669 84.668 41.0669 85.0121 41.0669C85.0121 27.5955 85.0121 14.1242 85.0121 0.244629C91.4412 0.244629 97.8702 0.244629 104.494 0.244629C104.494 14.2806 104.494 28.3166 104.494 42.778C91.636 42.778 78.7779 42.778 65.5302 42.778C64.1108 39.7126 62.6914 36.6473 61.229 33.4891C60.8115 32.6017 60.394 31.7144 59.9639 30.8002C59.6454 30.1056 59.3281 29.4108 59.0131 28.7148C58.927 28.5248 58.8408 28.3349 58.752 28.1392C58.5671 27.7314 58.3821 27.3236 58.1973 26.9157C56.5687 23.3227 54.933 19.7327 53.2898 16.1458C51.6676 12.604 50.0485 9.06095 48.4411 5.51285C48.2492 5.08938 48.0569 4.66605 47.8642 4.24286C47.5997 3.66133 47.3362 3.07931 47.0732 2.49715C46.9943 2.32454 46.9155 2.15193 46.8343 1.97409C46.3013 0.789406 46.3013 0.789406 46.3013 0.244629Z" fill="#7C3AED"/>
<path d="M65.53 0.244629C66.2095 0.901099 66.3044 1.55881 66.5421 2.44463C66.3751 2.60596 66.2081 2.7673 66.0361 2.93352C65.8691 2.85285 65.7021 2.77218 65.53 2.68907C65.53 2.85041 65.53 3.01174 65.53 3.17796C65.363 3.17796 65.1961 3.17796 65.024 3.17796C64.9405 2.8553 64.857 2.53263 64.771 2.20018C64.938 2.11952 65.105 2.03885 65.277 1.95574C65.1935 1.79441 65.11 1.63307 65.024 1.46685C65.191 1.46685 65.358 1.46685 65.53 1.46685C65.53 1.06352 65.53 0.660184 65.53 0.244629Z" fill="#7C3AED"/>
<path d="M41.9999 5.37793C42.0834 5.7006 42.1669 6.02326 42.2529 6.35571C41.919 6.59771 41.585 6.83971 41.2409 7.08904C41.2409 6.92771 41.2409 6.76637 41.2409 6.60015C41.0739 6.60015 40.9069 6.60015 40.7349 6.60015C40.7349 6.11126 40.7349 6.11126 41.0828 5.71404C41.4939 5.37793 41.4939 5.37793 41.9999 5.37793Z" fill="#7C3AED"/>
<path d="M76.1565 23.7109C76.3235 23.9529 76.4905 24.1949 76.6625 24.4443C76.4955 24.7669 76.3285 25.0896 76.1565 25.422C76.073 25.18 75.9895 24.938 75.9035 24.6887C75.7365 24.608 75.5695 24.5274 75.3975 24.4443C75.6479 24.2023 75.8984 23.9603 76.1565 23.7109Z" fill="#7C3AED"/>
  </svg>
  <text x="280" y="250" text-anchor="middle" font-family="Inter, ui-sans-serif, system-ui, sans-serif" font-size="84" font-weight="700" letter-spacing="-3" fill="#000000">MarcVista</text>
</svg>
